<?xml version="1.0" encoding="UTF-8" standalone="no" ?>
<!DOCTYPE svg PUBLIC "-//W3C//DTD SVG 1.1//EN" "http://www.w3.org/Graphics/SVG/1.1/DTD/svg11.dtd">
<svg xmlns="http://www.w3.org/2000/svg" xmlns:xlink="http://www.w3.org/1999/xlink" version="1.1" width="1080" height="1080" viewBox="0 0 1080 1080" xml:space="preserve">
<desc>Created with Fabric.js 5.2.4</desc>
<defs>
</defs>
<g transform="matrix(1 0 0 1 540 540)" id="40f07168-5821-43c6-a647-7a55d185f5ed"  >
<rect style="stroke: none; stroke-width: 1; stroke-dasharray: none; stroke-linecap: butt; stroke-dashoffset: 0; stroke-linejoin: miter; stroke-miterlimit: 4; fill: rgb(255,255,255); fill-rule: nonzero; opacity: 1; visibility: hidden;" vector-effect="non-scaling-stroke"  x="-540" y="-540" rx="0" ry="0" width="1080" height="1080" />
</g>
<g transform="matrix(1 0 0 1 540 540)" id="7d46ab7f-d163-48fb-a93f-670ec1b23fd3"  >
</g>
<g transform="matrix(2.11 0 0 2.11 540 540)"  >
<g style=""   >
		<g transform="matrix(1 0 0 1 0 -159.2)"  >
<path style="stroke: none; stroke-width: 1; stroke-dasharray: none; stroke-linecap: butt; stroke-dashoffset: 0; stroke-linejoin: miter; stroke-miterlimit: 4; fill: rgb(253,192,114); fill-rule: nonzero; opacity: 1;" vector-effect="non-scaling-stroke"  transform=" translate(-256, -96.8)" d="M 5.436 175.016 L 231.521 8.059 C 246.07199999999997 -2.686 265.929 -2.686 280.479 8.059 L 506.56399999999996 175.016 C 514.559 180.92 510.383 193.605 500.44399999999996 193.605 L 11.556 193.605 C 1.616999999999999 193.605 -2.559000000000001 180.92 5.435999999999999 175.016 z" stroke-linecap="round" />
</g>
		<g transform="matrix(1 0 0 1 59.13 2.89)"  >
<path style="stroke: none; stroke-width: 1; stroke-dasharray: none; stroke-linecap: butt; stroke-dashoffset: 0; stroke-linejoin: miter; stroke-miterlimit: 4; fill: rgb(120,136,175); fill-rule: nonzero; opacity: 1;" vector-effect="non-scaling-stroke"  transform=" translate(-315.13, -258.89)" d="M 470.484 193.602 L 470.484 477.942 C 270.991 477.942 159.76799999999997 354.88300000000004 159.76799999999997 205.373 C 159.76799999999997 146.71499999999997 191.57799999999997 84.55499999999999 254.83599999999996 39.877999999999986 C 259.6407213091071 39.59406660064268 264.392258923858 41.008943740340165 268.25899999999996 43.874999999999986 z" stroke-linecap="round" />
</g>
		<g transform="matrix(1 0 0 1 0 4.49)"  >
<path style="stroke: none; stroke-width: 1; stroke-dasharray: none; stroke-linecap: butt; stroke-dashoffset: 0; stroke-linejoin: miter; stroke-miterlimit: 4; fill: rgb(104,125,170); fill-rule: nonzero; opacity: 1;" vector-effect="non-scaling-stroke"  transform=" translate(-256, -260.49)" d="M 470.484 477.942 L 470.484 481.094 L 41.516 481.094 L 41.516 193.602 L 243.741 43.875 C 246.97107206985993 41.49043059558795 250.82729559392294 40.101216947487 254.836 39.878 C 224.044 84.887 206.036 139.332 206.036 197.99 C 206.036 347.501 323.044 469.68 470.484 477.942 z" stroke-linecap="round" />
</g>
		<g transform="matrix(1 0 0 1 0 142.23)"  >
<path style="stroke: none; stroke-width: 1; stroke-dasharray: none; stroke-linecap: butt; stroke-dashoffset: 0; stroke-linejoin: miter; stroke-miterlimit: 4; fill: rgb(253,192,114); fill-rule: nonzero; opacity: 1;" vector-effect="non-scaling-stroke"  transform=" translate(-256, -398.23)" d="M 400.225 486.495 L 111.77500000000003 486.495 C 111.77500000000003 403.997 176.34700000000004 309.959 256 309.959 C 335.65299999999996 309.959 400.225 403.997 400.225 486.495 z" stroke-linecap="round" />
</g>
		<g transform="matrix(1 0 0 1 -85.59 148.5)"  >
<path style="stroke: none; stroke-width: 1; stroke-dasharray: none; stroke-linecap: butt; stroke-dashoffset: 0; stroke-linejoin: miter; stroke-miterlimit: 4; fill: rgb(250,182,88); fill-rule: nonzero; opacity: 1;" vector-effect="non-scaling-stroke"  transform=" translate(-170.41, -404.5)" d="M 229.051 486.493 L 111.775 486.493 C 111.775 422.158 151.046 350.798 206.119 322.509 C 194.148 342.319 187.267 365.54 187.267 390.367 C 187.266 428.308 203.34799999999998 462.5 229.051 486.49300000000005 z" stroke-linecap="round" />
</g>
		<g transform="matrix(1 0 0 1 0 235.4)"  >
<path style="stroke: none; stroke-width: 1; stroke-dasharray: none; stroke-linecap: butt; stroke-dashoffset: 0; stroke-linejoin: miter; stroke-miterlimit: 4; fill: rgb(253,122,110); fill-rule: nonzero; opacity: 1;" vector-effect="non-scaling-stroke"  transform=" translate(-256, -491.4)" d="M 20.604 512 L 491.397 512 C 502.776 512 512.001 502.775 512.001 491.396 C 512.001 480.01700000000005 502.77599999999995 470.79200000000003 491.397 470.79200000000003 L 20.604 470.79200000000003 C 9.225 470.793 0 480.017 0 491.396 C 0 502.77500000000003 9.225 512 20.604 512 z" stroke-linecap="round" />
</g>
		<g transform="matrix(1 0 0 1 -94.01 76.19)"  >
<path style="stroke: none; stroke-width: 1; stroke-dasharray: none; stroke-linecap: butt; stroke-dashoffset: 0; stroke-linejoin: miter; stroke-miterlimit: 4; fill: rgb(253,192,114); fill-rule: nonzero; opacity: 1;" vector-effect="non-scaling-stroke"  transform=" translate(-161.99, -332.19)" d="M 206.349 357.406 C 212.32299999999998 323.525 177.951 260.624 177.951 260.624 C 177.951 260.624 124.13799999999999 307.976 118.16399999999999 341.857 C 112.18999999999998 375.73800000000006 128.481 398.78200000000004 152.83299999999997 403.076 C 177.18499999999995 407.37 200.37499999999997 391.28700000000003 206.34899999999996 357.406 z" stroke-linecap="round" />
</g>
		<g transform="matrix(1 0 0 1 94.01 76.19)"  >
<path style="stroke: none; stroke-width: 1; stroke-dasharray: none; stroke-linecap: butt; stroke-dashoffset: 0; stroke-linejoin: miter; stroke-miterlimit: 4; fill: rgb(253,203,137); fill-rule: nonzero; opacity: 1;" vector-effect="non-scaling-stroke"  transform=" translate(-350.01, -332.19)" d="M 305.651 357.406 C 299.677 323.525 334.04900000000004 260.624 334.04900000000004 260.624 C 334.04900000000004 260.624 387.862 307.976 393.836 341.857 C 399.81 375.73800000000006 383.519 398.78200000000004 359.16700000000003 403.076 C 334.81500000000005 407.369 311.625 391.28700000000003 305.651 357.406 z" stroke-linecap="round" />
</g>
		<g transform="matrix(1 0 0 1 27.19 96.29)"  >
<path style="stroke: none; stroke-width: 1; stroke-dasharray: none; stroke-linecap: butt; stroke-dashoffset: 0; stroke-linejoin: miter; stroke-miterlimit: 4; fill: rgb(255,217,160); fill-rule: nonzero; opacity: 1;" vector-effect="non-scaling-stroke"  transform=" translate(-283.19, -352.29)" d="M 346.357 389.378 C 355.165 431.018 343.96700000000004 453.692 335.684 464.169 C 328.56500000000005 473.162 319.54100000000005 477.829 310.146 479.83799999999997 C 237.097 452.765 209.64100000000002 396.5 209.64100000000002 326.9839999999999 C 209.64100000000002 292.32899999999995 223.07800000000003 252.19999999999993 250.95100000000002 224.86899999999991 C 252.62000000000003 224.78699999999992 254.30900000000003 224.74499999999992 255.99900000000002 224.74499999999992 C 311.639 224.74499999999992 356.74 267.53899999999993 356.74 319.9339999999999 C 356.74 336.7049999999999 353.165 354.4039999999999 347.355 371.6799999999999 C 345.44 377.3759999999999 345.111 383.4949999999999 346.357 389.3779999999999 z" stroke-linecap="round" />
</g>
		<g transform="matrix(1 0 0 1 -23.3 96.98)"  >
<path style="stroke: none; stroke-width: 1; stroke-dasharray: none; stroke-linecap: butt; stroke-dashoffset: 0; stroke-linejoin: miter; stroke-miterlimit: 4; fill: rgb(253,203,137); fill-rule: nonzero; opacity: 1;" vector-effect="non-scaling-stroke"  transform=" translate(-232.7, -352.98)" d="M 310.146 479.838 C 292.695 483.577 273.935 478.149 263.726 474.285 L 256 460.697 L 248.274 474.285 C 232.564 480.21900000000005 196.652 489.882 176.316 464.16900000000004 C 168.03300000000002 453.69200000000006 156.835 431.01800000000003 165.643 389.37800000000004 C 166.889 383.49600000000004 166.56 377.37700000000007 164.644 371.68000000000006 C 158.834 354.40400000000005 155.25900000000001 336.70500000000004 155.25900000000001 319.9340000000001 C 155.25900000000001 269.1360000000001 197.661 227.36200000000008 250.95300000000003 224.86900000000009 C 236.68500000000003 252.4060000000001 228.46400000000003 284.7840000000001 228.46400000000003 319.44000000000005 C 228.46300000000002 388.95500000000004 261.553 449.355 310.146 479.8380000000001 z" stroke-linecap="round" />
</g>
		<g transform="matrix(1 0 0 1 0 196.51)"  >
<path style="stroke: none; stroke-width: 1; stroke-dasharray: none; stroke-linecap: butt; stroke-dashoffset: 0; stroke-linejoin: miter; stroke-miterlimit: 4; fill: rgb(234,170,131); fill-rule: nonzero; opacity: 1;" vector-effect="non-scaling-stroke"  transform=" translate(-256, -452.51)" d="M 263.726 438.716 L 263.726 474.285 C 262.47853298343693 473.81475361598723 261.23966413656467 473.3220065342657 260.01 472.807 C 257.441597286212 471.726919301664 254.54640271378793 471.726919301664 251.97799999999998 472.807 C 250.92199999999997 473.25100000000003 249.67799999999997 473.752 248.27299999999997 474.285 L 248.27299999999997 438.45500000000004 C 248.27405330074288 436.23039682046215 249.23335177400497 434.11405969984446 250.90566105423895 432.64700752384806 C 252.57797033447295 431.17995534785166 254.80119809335932 430.5043854395339 257.00699999999995 430.79300000000006 C 260.905 431.28600000000006 263.72599999999994 434.78800000000007 263.72599999999994 438.71600000000007 z" stroke-linecap="round" />
</g>
		<g transform="matrix(1 0 0 1 0 165.01)"  >
<path style="stroke: none; stroke-width: 1; stroke-dasharray: none; stroke-linecap: butt; stroke-dashoffset: 0; stroke-linejoin: miter; stroke-miterlimit: 4; fill: rgb(228,153,109); fill-rule: nonzero; opacity: 1;" vector-effect="non-scaling-stroke"  transform=" translate(-256, -421.01)" d="M 223.079 415.417 C 223.079 430.871 237.818 448.996 256 448.996 C 274.182 448.996 288.921 430.871 288.921 415.417 C 288.921 399.96299999999997 274.182 393.03099999999995 256 393.03099999999995 C 237.81799999999998 393.03099999999995 223.079 399.96299999999997 223.079 415.417 z" stroke-linecap="round" />
</g>
		<g transform="matrix(1 0 0 1 0 105.79)"  >
<path style="stroke: none; stroke-width: 1; stroke-dasharray: none; stroke-linecap: butt; stroke-dashoffset: 0; stroke-linejoin: miter; stroke-miterlimit: 4; fill: rgb(102,102,103); fill-rule: nonzero; opacity: 1;" vector-effect="non-scaling-stroke"  transform=" translate(-256, -361.79)" d="M 215.899 374.668 C 213.84985608645388 374.6682652785215 211.88456361963813 373.85436351843686 210.4356000506006 372.4053999493994 C 208.98663648156312 370.9564363803619 208.1727347214785 368.9911439135461 208.173 366.942 L 208.173 356.64 C 208.1729999559002 353.87976602296965 209.64556722721954 351.3292046287429 212.0359999643668 349.94908762749725 C 214.42643270151407 348.56897062625154 217.37156729848596 348.56897062625154 219.7620000356332 349.94908762749725 C 222.15243277278046 351.3292046287429 223.6250000440998 353.87976602296965 223.625 356.64 L 223.625 366.942 C 223.6252652785215 368.9911439135461 222.81136351843688 370.9564363803619 221.3623999493994 372.4053999493994 C 219.9134363803619 373.85436351843686 217.94814391354612 374.6682652785215 215.899 374.668 z M 296.101 374.668 C 294.0518560864539 374.6682652785215 292.0865636196381 373.85436351843686 290.6376000506006 372.4053999493994 C 289.18863648156315 370.9564363803619 288.3747347214785 368.9911439135461 288.375 366.942 L 288.375 356.64 C 288.3749999559002 353.87976602296965 289.84756722721954 351.3292046287429 292.2379999643668 349.94908762749725 C 294.62843270151404 348.56897062625154 297.57356729848595 348.56897062625154 299.9640000356332 349.94908762749725 C 302.35443277278046 351.3292046287429 303.8270000440998 353.87976602296965 303.827 356.64 L 303.827 366.942 C 303.827 371.2089519771927 300.3679519771927 374.668 296.101 374.668 z" stroke-linecap="round" />
</g>
		<g transform="matrix(1 0 0 1 152.67 196.76)"  >
<path style="stroke: none; stroke-width: 1; stroke-dasharray: none; stroke-linecap: butt; stroke-dashoffset: 0; stroke-linejoin: miter; stroke-miterlimit: 4; fill: rgb(255,217,160); fill-rule: nonzero; opacity: 1;" vector-effect="non-scaling-stroke"  transform=" translate(-408.67, -452.76)" d="M 403.522 424.435 C 383.609 424.435 377.767 437.119 377.767 452.765 C 377.767 468.41099999999994 383.608 481.09499999999997 403.522 481.09499999999997 C 423.436 481.09499999999997 439.578 468.41099999999994 439.578 452.765 C 439.578 437.119 423.43499999999995 424.435 403.522 424.435 z" stroke-linecap="round" />
</g>
		<g transform="matrix(1 0 0 1 -152.67 196.76)"  >
<path style="stroke: none; stroke-width: 1; stroke-dasharray: none; stroke-linecap: butt; stroke-dashoffset: 0; stroke-linejoin: miter; stroke-miterlimit: 4; fill: rgb(253,203,137); fill-rule: nonzero; opacity: 1;" vector-effect="non-scaling-stroke"  transform=" translate(-103.33, -452.76)" d="M 108.478 424.435 C 88.565 424.435 72.422 437.119 72.422 452.765 C 72.422 468.41099999999994 88.565 481.09499999999997 108.478 481.09499999999997 C 128.391 481.09499999999997 134.233 468.41099999999994 134.233 452.765 C 134.233 437.119 128.391 424.435 108.47800000000001 424.435 z" stroke-linecap="round" />
</g>
		<g transform="matrix(1 0 0 1 -74.06 -71.03)"  >
<path style="stroke: none; stroke-width: 1; stroke-dasharray: none; stroke-linecap: butt; stroke-dashoffset: 0; stroke-linejoin: miter; stroke-miterlimit: 4; fill: rgb(255,241,207); fill-rule: nonzero; opacity: 1;" vector-effect="non-scaling-stroke"  transform=" translate(-181.94, -184.97)" d="M 167.736 219.143 C 159.034 206.87 152.709 190.312 148.23 170.425 C 145.899 160.07500000000002 154.082 150.323 164.679 150.822 C 185.042 151.779 202.446 155.133 216.044 161.572 C 216.363 178.192 184.15900000000002 216.571 167.73600000000002 219.143 z" stroke-linecap="round" />
</g>
		<g transform="matrix(1 0 0 1 74.06 -71.03)"  >
<path style="stroke: none; stroke-width: 1; stroke-dasharray: none; stroke-linecap: butt; stroke-dashoffset: 0; stroke-linejoin: miter; stroke-miterlimit: 4; fill: rgb(255,248,230); fill-rule: nonzero; opacity: 1;" vector-effect="non-scaling-stroke"  transform=" translate(-330.06, -184.97)" d="M 344.264 219.143 C 352.966 206.87 359.291 190.312 363.77 170.425 C 366.101 160.07500000000002 357.918 150.323 347.32099999999997 150.822 C 326.95799999999997 151.779 309.554 155.133 295.95599999999996 161.572 C 295.63699999999994 178.192 327.84099999999995 216.571 344.26399999999995 219.143 z" stroke-linecap="round" />
</g>
		<g transform="matrix(1 0 0 1 17.98 -31.34)"  >
<path style="stroke: none; stroke-width: 1; stroke-dasharray: none; stroke-linecap: butt; stroke-dashoffset: 0; stroke-linejoin: miter; stroke-miterlimit: 4; fill: rgb(255,248,230); fill-rule: nonzero; opacity: 1;" vector-effect="non-scaling-stroke"  transform=" translate(-273.99, -224.66)" d="M 355.309 243.762 C 355.309 269.939 343.987 288.842 325.72200000000004 301.133 C 255.99900000000002 309.96 192.66100000000003 261.476 192.66100000000003 201.78699999999998 C 192.66100000000003 189.84699999999998 207.04500000000002 173.33799999999997 228.14300000000003 151.10699999999997 C 237.1934215776506 148.47138256763049 246.57262290358904 147.1360181054438 255.99899999999994 147.14099999999996 C 310.84700000000004 147.14099999999996 355.309 191.88199999999995 355.309 243.76199999999994 z" stroke-linecap="round" />
</g>
		<g transform="matrix(1 0 0 1 -14.79 -20.99)"  >
<path style="stroke: none; stroke-width: 1; stroke-dasharray: none; stroke-linecap: butt; stroke-dashoffset: 0; stroke-linejoin: miter; stroke-miterlimit: 4; fill: rgb(255,241,207); fill-rule: nonzero; opacity: 1;" vector-effect="non-scaling-stroke"  transform=" translate(-241.21, -235.01)" d="M 325.723 301.132 C 307.798 313.206 283.17600000000004 318.923 256 318.923 C 201.153 318.923 156.691 295.651 156.691 243.761 C 156.691 201.029 186.854 163.139 228.144 151.106 C 224.796 161.954 223.00300000000001 173.482 223.00300000000001 185.421 C 223.00300000000001 245.111 267.87800000000004 294.312 325.723 301.132 z" stroke-linecap="round" />
</g>
		<g transform="matrix(1 0 0 1 0 12.75)"  >
<path style="stroke: none; stroke-width: 1; stroke-dasharray: none; stroke-linecap: butt; stroke-dashoffset: 0; stroke-linejoin: miter; stroke-miterlimit: 4; fill: rgb(198,198,198); fill-rule: nonzero; opacity: 1;" vector-effect="non-scaling-stroke"  transform=" translate(-256, -268.75)" d="M 256 293.034 C 253.95085608645388 293.0342652785215 251.98556361963813 292.22036351843684 250.5366000506006 290.7713999493994 C 249.08763648156312 289.32243638036186 248.2737347214785 287.3571439135461 248.274 285.308 L 248.274 252.2 C 248.2739999559002 249.43976602296965 249.74656722721954 246.88920462874293 252.1369999643668 245.50908762749725 C 254.52743270151407 244.12897062625157 257.47256729848596 244.12897062625157 259.8630000356332 245.50908762749725 C 262.25343277278046 246.88920462874293 263.7260000440998 249.43976602296965 263.726 252.2 L 263.726 285.308 C 263.726 289.5749519771927 260.2669519771927 293.034 256 293.034 z" stroke-linecap="round" />
</g>
		<g transform="matrix(1 0 0 1 0 -10.44)"  >
<path style="stroke: none; stroke-width: 1; stroke-dasharray: none; stroke-linecap: butt; stroke-dashoffset: 0; stroke-linejoin: miter; stroke-miterlimit: 4; fill: rgb(255,161,172); fill-rule: nonzero; opacity: 1;" vector-effect="non-scaling-stroke"  transform=" translate(-256, -245.56)" d="M 230.245 241.186 C 230.245 253.276 241.776 267.456 256 267.456 C 270.224 267.456 281.755 253.27700000000002 281.755 241.186 C 281.755 229.095 270.224 223.673 256 223.673 C 241.776 223.673 230.245 229.096 230.245 241.186 z" stroke-linecap="round" />
</g>
		<g transform="matrix(1 0 0 1 0 -45.48)"  >
<path style="stroke: none; stroke-width: 1; stroke-dasharray: none; stroke-linecap: butt; stroke-dashoffset: 0; stroke-linejoin: miter; stroke-miterlimit: 4; fill: rgb(102,102,103); fill-rule: nonzero; opacity: 1;" vector-effect="non-scaling-stroke"  transform=" translate(-256, -210.52)" d="M 209.642 223.401 C 207.59285608645388 223.40126527852152 205.62756361963812 222.5873635184369 204.1786000506006 221.1383999493994 C 202.72963648156312 219.68943638036188 201.9157347214785 217.72414391354613 201.916 215.675 L 201.916 205.37300000000002 C 201.9159999559002 202.61276602296968 203.38856722721954 200.06220462874296 205.7789999643668 198.68208762749728 C 208.16943270151407 197.3019706262516 211.11456729848595 197.3019706262516 213.5050000356332 198.68208762749728 C 215.89543277278045 200.06220462874296 217.3680000440998 202.61276602296968 217.368 205.37300000000002 L 217.368 215.675 C 217.368 219.94195197719273 213.90895197719271 223.401 209.642 223.401 z M 302.358 223.401 C 300.3088560864539 223.40126527852152 298.34356361963813 222.5873635184369 296.8946000506006 221.1383999493994 C 295.44563648156316 219.68943638036188 294.6317347214785 217.72414391354613 294.632 215.675 L 294.632 205.37300000000002 C 294.6319999559002 202.61276602296968 296.10456722721955 200.06220462874296 298.4949999643668 198.68208762749728 C 300.88543270151405 197.3019706262516 303.83056729848596 197.3019706262516 306.2210000356332 198.68208762749728 C 308.61143277278046 200.06220462874296 310.0840000440998 202.61276602296968 310.084 205.37300000000002 L 310.084 215.675 C 310.0842652785215 217.72414391354613 309.27036351843685 219.68943638036188 307.8213999493994 221.1383999493994 C 306.3724363803619 222.5873635184369 304.4071439135461 223.40126527852152 302.358 223.401 z" stroke-linecap="round" />
</g>
		<g transform="matrix(0.5 -0.87 0.87 0.5 103.01 33.31)"  >
<ellipse style="stroke: none; stroke-width: 1; stroke-dasharray: none; stroke-linecap: butt; stroke-dashoffset: 0; stroke-linejoin: miter; stroke-miterlimit: 4; fill: rgb(255,241,207); fill-rule: nonzero; opacity: 1;" vector-effect="non-scaling-stroke"  cx="0" cy="0" rx="24.283" ry="30.905" />
</g>
		<g transform="matrix(0.87 -0.5 0.5 0.87 -103.02 33.3)"  >
<ellipse style="stroke: none; stroke-width: 1; stroke-dasharray: none; stroke-linecap: butt; stroke-dashoffset: 0; stroke-linejoin: miter; stroke-miterlimit: 4; fill: rgb(255,234,183); fill-rule: nonzero; opacity: 1;" vector-effect="non-scaling-stroke"  cx="0" cy="0" rx="30.905" ry="24.283" />
</g>
</g>
</g>
</svg>