<?xml version="1.0" encoding="UTF-8" standalone="no" ?>
<!DOCTYPE svg PUBLIC "-//W3C//DTD SVG 1.1//EN" "http://www.w3.org/Graphics/SVG/1.1/DTD/svg11.dtd">
<svg xmlns="http://www.w3.org/2000/svg" xmlns:xlink="http://www.w3.org/1999/xlink" version="1.1" width="1080" height="1080" viewBox="0 0 1080 1080" xml:space="preserve">
<desc>Created with Fabric.js 5.2.4</desc>
<defs>
</defs>
<g transform="matrix(1 0 0 1 540 540)" id="1b06f364-b351-4be3-83f6-c501c5cb2c16"  >
<rect style="stroke: none; stroke-width: 1; stroke-dasharray: none; stroke-linecap: butt; stroke-dashoffset: 0; stroke-linejoin: miter; stroke-miterlimit: 4; fill: rgb(255,255,255); fill-rule: nonzero; opacity: 1; visibility: hidden;" vector-effect="non-scaling-stroke"  x="-540" y="-540" rx="0" ry="0" width="1080" height="1080" />
</g>
<g transform="matrix(1 0 0 1 540 540)" id="5a5b05f0-cd91-4799-9487-6a8e4e7b40be"  >
</g>
<g transform="matrix(2.11 0 0 2.11 540 540)"  >
<g style=""   >
		<g transform="matrix(1 0 0 1 136 128)"  >
<path style="stroke: none; stroke-width: 1; stroke-dasharray: none; stroke-linecap: butt; stroke-dashoffset: 0; stroke-linejoin: miter; stroke-miterlimit: 4; fill: rgb(126,133,137); fill-rule: nonzero; opacity: 1;" vector-effect="non-scaling-stroke"  transform=" translate(-392, -384)" d="M 496 433 C 496 494.856 449.438 496 392 496 C 334.562 496 288 494.856 288 433 C 288 371.144 334.562 272 392 272 C 449.438 272 496 371.144 496 433 z" stroke-linecap="round" />
</g>
		<g transform="matrix(1 0 0 1 136 120)"  >
<path style="stroke: none; stroke-width: 1; stroke-dasharray: none; stroke-linecap: butt; stroke-dashoffset: 0; stroke-linejoin: miter; stroke-miterlimit: 4; fill: rgb(154,163,168); fill-rule: nonzero; opacity: 1;" vector-effect="non-scaling-stroke"  transform=" translate(-392, -376)" d="M 472 464 C 476.3691579295729 463.99989380383886 480.5483123480281 465.7865364607913 483.56710372874693 468.9450867017286 C 486.58589510946575 472.1036369426659 488.18170439766214 476.35931742322856 487.984 480.724 C 487.6 489.359 480.142 496 471.5 496 L 424.054 496 C 415.1876206262164 496 408 488.8123793737836 408 479.946 L 408 464.052 C 408.00000258276566 464.0380337199403 407.9943869689567 464.02465348229583 407.98441771573584 464.0148723281923 C 407.974448462515 464.0050911740889 407.9609636975329 463.9997314174478 407.947 464 C 398.972 463.972 392.407 456.889 392.036 448.006 L 392 448 L 391.964 448.006 C 391.593 456.88899999999995 385.028 463.972 376.053 464 C 376.0390363024671 463.9997314174478 376.025551537485 464.0050911740889 376.01558228426416 464.0148723281923 C 376.0056130310433 464.02465348229583 375.99999741723434 464.0380337199403 376 464.052 L 376 479.946 C 376 488.8123793737836 368.8123793737836 496 359.946 496 L 312.5 496 C 303.856 496 296.395 489.359 296.014 480.724 C 295.81627983744664 476.35897043357664 297.4123583836159 472.10297635536864 300.4315871607379 468.9443636899997 C 303.45081593785983 465.7857510246308 307.63049477025015 463.9993476050888 312 464 L 319.946 464 C 319.9758233764909 464 320 463.9758233764909 320 463.946 L 320 320 C 320 284.65377601082923 348.65377601082923 256 384 256 L 400 256 C 435.34622398917077 256 464 284.65377601082923 464 320 L 464 463.946 C 464 463.9758233764909 464.0241766235091 464 464.054 464 z" stroke-linecap="round" />
</g>
		<g transform="matrix(1 0 0 1 96 184)"  >
<path style="stroke: none; stroke-width: 1; stroke-dasharray: none; stroke-linecap: butt; stroke-dashoffset: 0; stroke-linejoin: miter; stroke-miterlimit: 4; fill: rgb(182,185,186); fill-rule: nonzero; opacity: 1;" vector-effect="non-scaling-stroke"  transform=" translate(-352, -440)" d="M 392 456 C 387.5817220013536 456 384 452.4182779986464 384 448 L 384 416 C 384 411.5817220013536 387.5817220013536 408 392 408 C 396.4182779986464 408 400 411.5817220013536 400 416 L 400 448 C 400 452.4182779986464 396.4182779986464 456 392 456 z M 336 472 L 312 472 C 307.5817220013536 472 304 468.4182779986464 304 464 C 304 459.5817220013536 307.5817220013536 456 312 456 L 336 456 C 340.4182779986464 456 344 459.5817220013536 344 464 C 344 468.4182779986463 340.4182779986464 472 336 472 z" stroke-linecap="round" />
</g>
		<g transform="matrix(1 0 0 1 136 120)"  >
<path style="stroke: none; stroke-width: 1; stroke-dasharray: none; stroke-linecap: butt; stroke-dashoffset: 0; stroke-linejoin: miter; stroke-miterlimit: 4; fill: rgb(126,133,137); fill-rule: nonzero; opacity: 1;" vector-effect="non-scaling-stroke"  transform=" translate(-392, -376)" d="M 416 387.429 C 416 409.52 405.255 416 392 416 C 378.745 416 368 409.52 368 387.429 C 368 365.33799999999997 378.745 336 392 336 C 405.255 336 416 365.337 416 387.429 z" stroke-linecap="round" />
</g>
		<g transform="matrix(1 0 0 1 168 216)"  >
<rect style="stroke: none; stroke-width: 1; stroke-dasharray: none; stroke-linecap: butt; stroke-dashoffset: 0; stroke-linejoin: miter; stroke-miterlimit: 4; fill: rgb(182,185,186); fill-rule: nonzero; opacity: 1;" vector-effect="non-scaling-stroke"  x="-80" y="-24" rx="22.883" ry="22.883" width="160" height="48" />
</g>
		<g transform="matrix(1 0 0 1 112 216)"  >
<path style="stroke: none; stroke-width: 1; stroke-dasharray: none; stroke-linecap: butt; stroke-dashoffset: 0; stroke-linejoin: miter; stroke-miterlimit: 4; fill: rgb(126,133,137); fill-rule: nonzero; opacity: 1;" vector-effect="non-scaling-stroke"  transform=" translate(-368, -472)" d="M 392 448 L 392 496 L 366.88 496 C 354.24555426249634 495.99558467695454 344.00441532304546 485.75444573750366 344 473.12 L 344 470.88 C 344.00441532304546 458.24555426249634 354.24555426249634 448.00441532304546 366.88 448 z" stroke-linecap="round" />
</g>
		<g transform="matrix(1 0 0 1 136 -95.99)"  >
<path style="stroke: none; stroke-width: 1; stroke-dasharray: none; stroke-linecap: butt; stroke-dashoffset: 0; stroke-linejoin: miter; stroke-miterlimit: 4; fill: rgb(154,163,168); fill-rule: nonzero; opacity: 1;" vector-effect="non-scaling-stroke"  transform=" translate(-392, -160.01)" d="M 480 216 L 480 113.893 C 479.9982723078071 110.30112734669778 478.04790404667756 106.99297130558521 474.90587835400765 105.2525039289697 C 471.76385266133775 103.5120365523542 467.9248973597406 103.61330322362357 464.879 105.517 L 424 136 L 360 136 L 319.121 105.517 C 316.0751026402594 103.61330322362357 312.23614733866225 103.5120365523542 309.09412164599235 105.2525039289697 C 305.95209595332244 106.99297130558521 304.0017276921929 110.30112734669778 304 113.893 L 304 216 z" stroke-linecap="round" />
</g>
		<g transform="matrix(1 0 0 1 136 -56)"  >
<path style="stroke: none; stroke-width: 1; stroke-dasharray: none; stroke-linecap: butt; stroke-dashoffset: 0; stroke-linejoin: miter; stroke-miterlimit: 4; fill: rgb(182,185,186); fill-rule: nonzero; opacity: 1;" vector-effect="non-scaling-stroke"  transform=" translate(-392, -200)" d="M 480 217.455 C 480 270.474 448.7 280 392 280 C 335.3 280 304 270.474 304 217.45499999999998 C 304 164.43599999999998 335.3 120 392 120 C 448.7 120 480 164.435 480 217.45499999999998 z" stroke-linecap="round" />
</g>
		<g transform="matrix(1 0 0 1 136 -72)"  >
<path style="stroke: none; stroke-width: 1; stroke-dasharray: none; stroke-linecap: butt; stroke-dashoffset: 0; stroke-linejoin: miter; stroke-miterlimit: 4; fill: rgb(126,133,137); fill-rule: nonzero; opacity: 1;" vector-effect="non-scaling-stroke"  transform=" translate(-392, -184)" d="M 400 120.31 L 400 168 C 400 172.41827799864635 396.4182779986464 176 392 176 C 387.5817220013536 176 384 172.41827799864635 384 168 L 384 120.31 Q 387.915 119.995 392 120 Q 396.085 120.005 400 120.31 z M 432 128.88 L 432 152 C 432 156.41827799864635 428.4182779986464 160 424 160 C 419.5817220013536 160 416 156.41827799864635 416 152 L 416 122.94 C 421.52557909692507 124.35759315830681 426.8879990712848 126.34839157378786 432 128.88 z M 368 122.94 L 368 152 C 368 156.41827799864635 364.4182779986464 160 360 160 C 355.5817220013536 160 352 156.41827799864635 352 152 L 352 128.88 C 357.1120009287152 126.34839157378785 362.47442090307493 124.35759315830683 367.99999999999994 122.94000000000001 z M 320.009 208 C 319.47914206352334 208.0001763366106 318.9505668704075 207.94792175478165 318.43100000000004 207.844 L 278.43100000000004 199.844 C 274.0983261375775 198.9774652275155 271.28846522751553 194.7626738624226 272.15500000000003 190.43 C 273.02153477248453 186.09732613757743 277.23632613757746 183.2874652275155 281.569 184.154 L 321.569 192.154 C 325.6037087209007 192.95731088942605 328.37142749865893 196.68968256519165 327.9683724547483 200.78379168429933 C 327.5653174108376 204.87790080340704 324.1229010242383 207.99889983898595 320.009 208 z M 279.991 248 C 275.8770989757617 247.99889983898595 272.4346825891624 244.87790080340704 272.0316275452517 240.78379168429933 C 271.62857250134107 236.68968256519165 274.3962912790993 232.95731088942605 278.431 232.154 L 318.431 224.154 C 322.76367386242254 223.2874652275155 326.97846522751547 226.09732613757743 327.84499999999997 230.43 C 328.71153477248447 234.7626738624226 325.9016738624225 238.9774652275155 321.56899999999996 239.844 L 281.56899999999996 247.844 C 281.0494331295925 247.94792175478165 280.52085793647666 248.0001763366106 279.991 248 z M 463.991 208 C 459.8770989757617 207.99889983898595 456.4346825891624 204.87790080340704 456.0316275452517 200.78379168429933 C 455.62857250134107 196.68968256519165 458.3962912790993 192.95731088942605 462.431 192.154 L 502.431 184.154 C 506.76367386242254 183.2874652275155 510.97846522751547 186.09732613757743 511.84499999999997 190.43 C 512.7115347724845 194.7626738624226 509.9016738624225 198.9774652275155 505.56899999999996 199.844 L 465.56899999999996 207.844 C 465.0494331295925 207.94792175478165 464.52085793647666 208.0001763366106 463.991 208 z M 504.009 248 C 503.47914206352334 248.0001763366106 502.9505668704075 247.94792175478165 502.43100000000004 247.844 L 462.43100000000004 239.844 C 458.0983261375775 238.9774652275155 455.28846522751553 234.7626738624226 456.15500000000003 230.43 C 457.02153477248453 226.09732613757743 461.23632613757746 223.2874652275155 465.569 224.154 L 505.569 232.154 C 509.6037087209007 232.95731088942605 512.3714274986589 236.68968256519165 511.9683724547483 240.78379168429933 C 511.5653174108376 244.87790080340704 508.1229010242383 247.99889983898595 504.009 248 z" stroke-linecap="round" />
</g>
		<g transform="matrix(1 0 0 1 -176 216)"  >
<path style="stroke: none; stroke-width: 1; stroke-dasharray: none; stroke-linecap: butt; stroke-dashoffset: 0; stroke-linejoin: miter; stroke-miterlimit: 4; fill: rgb(140,82,55); fill-rule: nonzero; opacity: 1;" vector-effect="non-scaling-stroke"  transform=" translate(-80, -472)" d="M 8 448 L 152 448 L 152 496 L 56 496 C 29.490332008121914 496 8 474.5096679918781 8 448 z" stroke-linecap="round" />
</g>
		<g transform="matrix(1 0 0 1 -88 112)"  >
<path style="stroke: none; stroke-width: 1; stroke-dasharray: none; stroke-linecap: butt; stroke-dashoffset: 0; stroke-linejoin: miter; stroke-miterlimit: 4; fill: rgb(179,122,96); fill-rule: nonzero; opacity: 1;" vector-effect="non-scaling-stroke"  transform=" translate(-168, -368)" d="M 288 424 C 288 494.692 234.274 496 168 496 C 101.726 496 48 494.692 48 424 C 48 353.308 101.726 240 168 240 C 234.274 240 288 353.308 288 424 z" stroke-linecap="round" />
</g>
		<g transform="matrix(1 0 0 1 -88 96)"  >
<path style="stroke: none; stroke-width: 1; stroke-dasharray: none; stroke-linecap: butt; stroke-dashoffset: 0; stroke-linejoin: miter; stroke-miterlimit: 4; fill: rgb(212,144,115); fill-rule: nonzero; opacity: 1;" vector-effect="non-scaling-stroke"  transform=" translate(-168, -352)" d="M 264 464 C 272.8365559972927 464 280 471.1634440027073 280 480 C 280 488.8365559972927 272.8365559972927 496 264 496 L 200 496 C 191.1634440027073 496 184 488.8365559972927 184 480 L 184 464 C 175 464 168.407 456.906 168.036 448.006 L 168 448 L 167.964 448.006 C 167.593 456.906 161 464 152 464 L 152 480 C 152 488.8365559972927 144.8365559972927 496 136 496 L 72 496 C 63.16344400270731 496 56 488.8365559972927 56 480 C 56 471.1634440027073 63.16344400270731 464 72 464 L 80 464 L 80 288 C 80 243.81722001353654 115.81722001353653 208 160 208 L 176 208 C 220.18277998646346 208 256 243.8172200135365 256 288 L 256 464 z" stroke-linecap="round" />
</g>
		<g transform="matrix(1 0 0 1 -88 172)"  >
<path style="stroke: none; stroke-width: 1; stroke-dasharray: none; stroke-linecap: butt; stroke-dashoffset: 0; stroke-linejoin: miter; stroke-miterlimit: 4; fill: rgb(196,134,105); fill-rule: nonzero; opacity: 1;" vector-effect="non-scaling-stroke"  transform=" translate(-168, -428)" d="M 168 456 C 163.58172200135365 456 160 452.4182779986464 160 448 L 160 392 C 160 387.5817220013536 163.58172200135365 384 168 384 C 172.41827799864635 384 176 387.5817220013536 176 392 L 176 448 C 176 452.4182779986464 172.41827799864635 456 168 456 z M 104 472 L 80 472 C 75.58172200135365 472 72 468.4182779986464 72 464 C 72 459.5817220013536 75.58172200135365 456 80 456 L 104 456 C 108.41827799864635 456 112 459.5817220013536 112 464 C 112 468.4182779986463 108.41827799864635 472 104 472 z M 256 472 L 232 472 C 227.58172200135365 472 224 468.4182779986464 224 464 C 224 459.5817220013536 227.58172200135365 456 232 456 L 256 456 C 260.4182779986464 456 264 459.5817220013536 264 464 C 264 468.4182779986463 260.4182779986464 472 256 472 z" stroke-linecap="round" />
</g>
		<g transform="matrix(1 0 0 1 -88 88)"  >
<path style="stroke: none; stroke-width: 1; stroke-dasharray: none; stroke-linecap: butt; stroke-dashoffset: 0; stroke-linejoin: miter; stroke-miterlimit: 4; fill: rgb(179,122,96); fill-rule: nonzero; opacity: 1;" vector-effect="non-scaling-stroke"  transform=" translate(-168, -344)" d="M 208 360 C 208 390.928 190.091 400 168 400 C 145.909 400 128 390.928 128 360 C 128 329.072 145.909 288 168 288 C 190.091 288 208 329.072 208 360 z" stroke-linecap="round" />
</g>
		<g transform="matrix(1 0 0 1 -88 -152)"  >
<path style="stroke: none; stroke-width: 1; stroke-dasharray: none; stroke-linecap: butt; stroke-dashoffset: 0; stroke-linejoin: miter; stroke-miterlimit: 4; fill: rgb(140,82,55); fill-rule: nonzero; opacity: 1;" vector-effect="non-scaling-stroke"  transform=" translate(-168, -104)" d="M 160 32 L 105.80799999999999 32 C 94.721 33.594 86.623 40.54 80 48.1 L 38.01 104.44 C 20.416 136.62 43.559 176 80.068 176 L 160 176 z M 176 32 L 230.192 32 C 241.279 33.594 249.377 40.54 256 48.1 L 297.99 104.44 C 315.584 136.62 292.44100000000003 176 255.93200000000002 176 L 176 176 z" stroke-linecap="round" />
</g>
		<g transform="matrix(1 0 0 1 -88 -136.14)"  >
<path style="stroke: none; stroke-width: 1; stroke-dasharray: none; stroke-linecap: butt; stroke-dashoffset: 0; stroke-linejoin: miter; stroke-miterlimit: 4; fill: rgb(196,134,105); fill-rule: nonzero; opacity: 1;" vector-effect="non-scaling-stroke"  transform=" translate(-168, -119.86)" d="M 168 16 C 128 16 112 40 96 88 C 80 136 72 136 72 168 C 72 200 88 223.711 104 223.711 L 232 223.711 C 248 223.711 264 200 264 168 C 264 136 256 136 240 88 C 224 40 208 16 168 16 z" stroke-linecap="round" />
</g>
		<g transform="matrix(1 0 0 1 -88 -84.14)"  >
<path style="stroke: none; stroke-width: 1; stroke-dasharray: none; stroke-linecap: butt; stroke-dashoffset: 0; stroke-linejoin: miter; stroke-miterlimit: 4; fill: rgb(240,198,164); fill-rule: nonzero; opacity: 1;" vector-effect="non-scaling-stroke"  transform=" translate(-168, -171.86)" d="M 224 199.711 C 224 228.43 198.928 223.711 168 223.711 C 137.072 223.711 112 228.43 112 199.711 C 112 170.99200000000002 137.072 119.71100000000001 168 119.71100000000001 C 198.928 119.71100000000001 224 170.993 224 199.711 z" stroke-linecap="round" />
</g>
		<g transform="matrix(1 0 0 1 -56 -160.29)"  >
<circle style="stroke: none; stroke-width: 1; stroke-dasharray: none; stroke-linecap: butt; stroke-dashoffset: 0; stroke-linejoin: miter; stroke-miterlimit: 4; fill: rgb(140,82,55); fill-rule: nonzero; opacity: 1;" vector-effect="non-scaling-stroke"  cx="0" cy="0" r="8" />
</g>
		<g transform="matrix(1 0 0 1 -120 -160.29)"  >
<circle style="stroke: none; stroke-width: 1; stroke-dasharray: none; stroke-linecap: butt; stroke-dashoffset: 0; stroke-linejoin: miter; stroke-miterlimit: 4; fill: rgb(140,82,55); fill-rule: nonzero; opacity: 1;" vector-effect="non-scaling-stroke"  cx="0" cy="0" r="8" />
</g>
		<g transform="matrix(1 0 0 1 -88 -84)"  >
<path style="stroke: none; stroke-width: 1; stroke-dasharray: none; stroke-linecap: butt; stroke-dashoffset: 0; stroke-linejoin: miter; stroke-miterlimit: 4; fill: rgb(140,82,55); fill-rule: nonzero; opacity: 1;" vector-effect="non-scaling-stroke"  transform=" translate(-168, -172)" d="M 192 184 C 177.49099999999999 184 176.122 177.344 176 175.834 L 176 168 C 180.41827799864635 168 184 164.41827799864635 184 160 C 184 152.244 178.393 144 168 144 C 157.607 144 152 152.244 152 160 C 152 164.41827799864635 155.58172200135365 168 160 168 L 160 176 C 159.78499563941077 177.15994162843268 159.30597056435067 178.25485608571293 158.6 179.2 C 156.245 182.33999999999997 151.2 184 144 184 C 139.58172200135365 184 136 187.58172200135365 136 192 C 136 196.41827799864635 139.58172200135365 200 144 200 C 155.841 200 163.3 196.67 168 192.492 C 172.7 196.67 180.159 200 192 200 C 196.41827799864635 200 200 196.41827799864635 200 192 C 200 187.58172200135365 196.41827799864635 184 192 184 z M 176 176 L 176 175.865 z" stroke-linecap="round" />
</g>
		<g transform="matrix(1 0 0 1 140 152)"  >
<path style="stroke: none; stroke-width: 1; stroke-dasharray: none; stroke-linecap: butt; stroke-dashoffset: 0; stroke-linejoin: miter; stroke-miterlimit: 4; fill: rgb(126,133,137); fill-rule: nonzero; opacity: 1;" vector-effect="non-scaling-stroke"  transform=" translate(-396, -408)" d="M 424 464 C 424 468.4182779986464 427.5817220013536 472 432 472 C 436.4182779986464 472 440 468.4182779986464 440 464 L 440 448 L 424 448 z M 456 448 L 456 464 C 456 468.4182779986464 459.5817220013536 472 464 472 C 468.4182779986464 472 472 468.4182779986464 472 464 L 472 448 z M 336 344 L 320 344 L 320 360 L 336 360 C 340.4182779986464 360 344 356.4182779986464 344 352 C 344 347.5817220013536 340.4182779986464 344 336 344 z M 336 376 L 320 376 L 320 392 L 336 392 C 340.4182779986464 392 344 388.4182779986464 344 384 C 344 379.5817220013536 340.4182779986464 376 336 376 z M 440 384 C 440 388.4182779986464 443.5817220013536 392 448 392 L 464 392 L 464 376 L 448 376 C 443.5817220013536 376 440 379.5817220013536 440 384 z M 440 352 C 440 356.4182779986464 443.5817220013536 360 448 360 L 464 360 L 464 344 L 448 344 C 443.5817220013536 344 440 347.5817220013536 440 352 z" stroke-linecap="round" />
</g>
		<g transform="matrix(1 0 0 1 176 -64)"  >
<circle style="stroke: none; stroke-width: 1; stroke-dasharray: none; stroke-linecap: butt; stroke-dashoffset: 0; stroke-linejoin: miter; stroke-miterlimit: 4; fill: rgb(126,133,137); fill-rule: nonzero; opacity: 1;" vector-effect="non-scaling-stroke"  cx="0" cy="0" r="8" />
</g>
		<g transform="matrix(1 0 0 1 96 -64)"  >
<circle style="stroke: none; stroke-width: 1; stroke-dasharray: none; stroke-linecap: butt; stroke-dashoffset: 0; stroke-linejoin: miter; stroke-miterlimit: 4; fill: rgb(126,133,137); fill-rule: nonzero; opacity: 1;" vector-effect="non-scaling-stroke"  cx="0" cy="0" r="8" />
</g>
		<g transform="matrix(1 0 0 1 135.98 -27.99)"  >
<path style="stroke: none; stroke-width: 1; stroke-dasharray: none; stroke-linecap: butt; stroke-dashoffset: 0; stroke-linejoin: miter; stroke-miterlimit: 4; fill: rgb(126,133,137); fill-rule: nonzero; opacity: 1;" vector-effect="non-scaling-stroke"  transform=" translate(-391.98, -228.01)" d="M 411.568 240.84 C 406.443 238.276 400.817 233.889 400 231.849 L 400 208 C 400 203.58172200135365 396.4182779986464 200 392 200 C 387.5817220013536 200 384 203.58172200135365 384 208 L 384 231.753 C 383.219 233.80399999999997 377.572 238.253 372.422 240.845 C 369.8424529110224 242.10990762959474 368.13925484820544 244.66089121352732 367.959826187279 247.52826978136554 C 367.7803975263526 250.39564834920378 369.15229437533446 253.13905862155292 371.554030717524 254.71567431292027 C 373.95576705971354 256.2922900042877 377.018491532493 256.45997927202677 379.57800000000003 255.155 C 384.053974570399 252.92794700841756 388.22209634832325 250.12959105670632 391.978 246.83000000000004 C 395.75448798090684 250.1391058951472 399.94652525105687 252.9414172571336 404.448 255.166 C 408.40349920492724 257.13019027378544 413.2023972607827 255.51756226138633 415.16904694978587 251.56328528669724 C 417.13569663878906 247.60900831200811 415.5260532152579 242.80910834368063 411.57300000000004 240.84000000000003 z" stroke-linecap="round" />
</g>
		<g transform="matrix(1 0 0 1 136 -43.96)"  >
<path style="stroke: none; stroke-width: 1; stroke-dasharray: none; stroke-linecap: butt; stroke-dashoffset: 0; stroke-linejoin: miter; stroke-miterlimit: 4; fill: rgb(126,133,137); fill-rule: nonzero; opacity: 1;" vector-effect="non-scaling-stroke"  transform=" translate(-392, -212.04)" d="M 392 200 C 381.60699999999997 200 376 208.244 376 216 C 375.9555410776386 220.41827799864635 379.50122200135365 224.03604107763863 383.91949999999997 224.0805 C 388.33777799864635 224.12495892236137 391.9555410776386 220.57927799864635 392 216.161 C 392 216.184 392 216.206 392.006 216.226 C 392.006 216.182 392.006 216.144 392 216.112 C 391.994 216.07999999999998 392 216.03799999999998 392 216 C 392 220.41827799864635 395.5817220013536 224 400 224 C 404.4182779986464 224 408 220.41827799864635 408 216 C 408 208.244 402.393 200 392 200 z" stroke-linecap="round" />
</g>
</g>
</g>
</svg>